<svg width="18" height="18" viewBox="0 0 18 18" fill="none" xmlns="http://www.w3.org/2000/svg">
<path fill-rule="evenodd" clip-rule="evenodd" d="M2.25 5.25C2.25 6.04565 2.56607 6.80871 3.12868 7.37132C3.69129 7.93393 4.45435 8.25 5.25 8.25C6.04565 8.25 6.80871 7.93393 7.37132 7.37132C7.93393 6.80871 8.25 6.04565 8.25 5.25C8.25 4.45435 7.93393 3.69129 7.37132 3.12868C6.80871 2.56607 6.04565 2.25 5.25 2.25C4.45435 2.25 3.69129 2.56607 3.12868 3.12868C2.56607 3.69129 2.25 4.45435 2.25 5.25ZM3.64425 5.61937C3.66658 5.71622 3.72644 5.80023 3.81067 5.85297C3.89491 5.9057 3.99663 5.92284 4.0935 5.90062L6.5745 5.33063C6.67147 5.30835 6.75562 5.24846 6.80843 5.16414C6.86125 5.07982 6.8784 4.97797 6.85612 4.881C6.83385 4.78403 6.77396 4.69988 6.68964 4.64707C6.60532 4.59425 6.50347 4.5771 6.4065 4.59938L3.9255 5.16975C3.87751 5.1808 3.83217 5.2012 3.79206 5.22978C3.75195 5.25836 3.71787 5.29456 3.69175 5.33631C3.66563 5.37806 3.648 5.42455 3.63985 5.47312C3.6317 5.52169 3.63319 5.57138 3.64425 5.61937Z" fill="#3F3F46"/>
<path d="M11.7079 3.46686C11.9505 2.89236 12.7627 2.83461 13.0886 3.36824L15.6401 7.54311C15.9345 8.02461 15.6056 8.63961 15.0315 8.68049L10.5817 8.99774C10.008 9.03899 9.59024 8.47724 9.80924 7.95899L11.7079 3.46686Z" fill="#3F3F46"/>
<path fill-rule="evenodd" clip-rule="evenodd" d="M4.73043 13.635C4.18954 13.3828 3.77098 12.9261 3.56682 12.3653C3.36266 11.8046 3.38964 11.1856 3.64181 10.6447C3.76667 10.3769 3.94306 10.1363 4.16091 9.93666C4.37876 9.73701 4.6338 9.58222 4.91147 9.48113C5.47225 9.27697 6.09117 9.30395 6.63206 9.55612L10.7106 11.4581C10.9784 11.583 11.2189 11.7594 11.4186 11.9772C11.6182 12.195 11.773 12.4501 11.874 12.7277C11.9751 13.0054 12.0205 13.3002 12.0076 13.5954C11.9948 13.8906 11.9239 14.1804 11.799 14.4482C11.6741 14.716 11.4977 14.9566 11.2799 15.1562C11.0621 15.3558 10.807 15.5106 10.5294 15.6117C10.2517 15.7127 9.95689 15.7581 9.6617 15.7453C9.3665 15.7324 9.07673 15.6615 8.80893 15.5366L4.73043 13.6346V13.635ZM6.77118 13.7587L5.04731 12.9551C4.69079 12.7845 4.416 12.4801 4.28269 12.108C4.14937 11.7359 4.16829 11.3263 4.33533 10.9681C4.50238 10.6099 4.80405 10.3321 5.17478 10.1951C5.54551 10.0581 5.95534 10.0729 6.31518 10.2364L8.03906 11.04L6.77156 13.7587H6.77118Z" fill="#3F3F46"/>
</svg>
