<svg width="18" height="18" viewBox="0 0 18 18" fill="none" xmlns="http://www.w3.org/2000/svg">
<g clip-path="url(#clip0_7951_3368)">
<path fill-rule="evenodd" clip-rule="evenodd" d="M4.2075 0.02331C4.19456 0.0362827 4.18394 0.281533 4.18394 0.568373V1.08985H9.00126H13.8186L13.8089 0.553712L13.7992 0.0175796L9.01511 0.00864989C6.38388 0.00376317 4.22047 0.0103374 4.2075 0.02331ZM4.20194 1.83692C4.21418 1.97708 4.30966 2.80371 4.41414 3.67383C4.88292 7.57765 4.99173 9.10199 4.99268 11.7773L4.99324 13.3066L5.07631 13.4824C5.17619 13.6937 5.30743 13.8229 5.51988 13.919C5.67545 13.9894 5.73366 13.9906 9.00035 13.9911L12.3226 13.9915L12.4986 13.9095C12.5955 13.8644 12.724 13.7713 12.7844 13.7026C13.0049 13.4514 13.0029 13.4722 13.0214 11.25C13.0438 8.57278 13.1293 7.43973 13.6037 3.5332C13.6977 2.75977 13.7847 2.00436 13.7971 1.85449L13.8197 1.58203H8.99968H4.17969L4.20194 1.83692ZM8.92033 4.40332C8.8554 4.45226 8.43785 5.16206 8.43785 5.22348C8.43785 5.24496 8.46678 5.28873 8.50215 5.32072C8.55485 5.3684 8.64668 5.37891 9.01111 5.37891C9.44567 5.37891 9.45706 5.37694 9.51289 5.29169C9.5684 5.20699 9.5638 5.19339 9.35191 4.81641C9.16822 4.4896 9.06563 4.35938 8.9918 4.35938C8.98456 4.35938 8.95239 4.37917 8.92033 4.40332ZM6.78181 5.29545C6.74142 5.3441 6.75144 5.41874 6.84893 5.79642C6.95534 6.20874 7.01521 6.32813 7.11548 6.32813C7.13489 6.32813 7.30638 6.17256 7.4965 5.9824C7.80714 5.67176 7.83907 5.62806 7.81101 5.55174C7.78443 5.47945 7.72006 5.45017 7.37933 5.35514C6.91277 5.22506 6.8458 5.21838 6.78181 5.29545ZM10.6214 5.35514C10.2806 5.45017 10.2163 5.47945 10.1897 5.55174C10.1616 5.62806 10.1936 5.67176 10.5042 5.9824C10.6943 6.17256 10.8658 6.32813 10.8852 6.32813C10.9855 6.32813 11.0454 6.20874 11.1518 5.79642C11.313 5.17194 11.3043 5.16474 10.6214 5.35514ZM8.6002 5.97832C8.19341 6.08031 7.77877 6.43437 7.58359 6.84636C7.47727 7.07087 7.47105 7.10631 7.47105 7.48828C7.47105 7.87026 7.47727 7.90569 7.58359 8.1302C7.73993 8.46021 8.0004 8.72497 8.32791 8.88687C8.58719 9.01501 8.60044 9.01758 9.00035 9.01758C9.40025 9.01758 9.4135 9.01501 9.67278 8.88687C10.0003 8.72497 10.2608 8.46021 10.4171 8.1302C10.5234 7.90569 10.5296 7.87026 10.5296 7.48828C10.5296 7.10631 10.5234 7.07087 10.4171 6.84636C10.2592 6.51294 9.99826 6.24871 9.67215 6.09188C9.43534 5.97797 9.37504 5.96415 9.07277 5.95466C8.88792 5.94886 8.67526 5.95951 8.6002 5.97832ZM6.31501 7.14555C5.92238 7.371 5.82264 7.47499 5.90449 7.57364C5.95754 7.63756 6.6806 8.05078 6.73938 8.05078C6.76255 8.05078 6.80614 8.01563 6.83623 7.97263C6.87825 7.91265 6.89097 7.79833 6.89097 7.48044C6.89097 7.11327 6.88303 7.05846 6.82066 6.9961C6.78199 6.95742 6.73846 6.92578 6.72398 6.92582C6.7095 6.92585 6.52545 7.02471 6.31501 7.14555ZM11.18 6.9961C11.1177 7.05846 11.1097 7.11327 11.1097 7.48044C11.1097 7.79833 11.1224 7.91265 11.1645 7.97263C11.1946 8.01563 11.238 8.05078 11.2611 8.05078C11.322 8.05078 12.0391 7.64248 12.0935 7.57684C12.1785 7.4744 12.0826 7.37322 11.6847 7.1454C11.4736 7.02461 11.2895 6.92578 11.2756 6.92578C11.2617 6.92578 11.2187 6.95742 11.18 6.9961ZM6.96564 8.7627C6.94965 8.80622 6.89125 9.018 6.83585 9.23333C6.69055 9.79844 6.71009 9.81246 7.37922 9.62308C7.93895 9.46466 7.94299 9.44691 7.51777 9.01329C7.25994 8.75039 7.17419 8.6836 7.09456 8.6836C7.02305 8.6836 6.98646 8.70606 6.96564 8.7627ZM10.4845 9.01167C10.0576 9.44698 10.0615 9.46431 10.6215 9.62385C11.2879 9.81373 11.3137 9.79042 11.1428 9.15251C11.0233 8.70687 11.0205 8.70103 10.9157 8.69077C10.8226 8.68163 10.7693 8.72132 10.4845 9.01167ZM8.50816 9.66797C8.46949 9.70664 8.43795 9.75013 8.43809 9.76465C8.43866 9.82445 8.88208 10.5607 8.93882 10.5961C8.98319 10.6237 9.0175 10.6237 9.06187 10.5961C9.11984 10.5601 9.56285 9.82617 9.56285 9.7662C9.56285 9.75083 9.53121 9.70664 9.49253 9.66797C9.43003 9.60546 9.37536 9.59766 9.00035 9.59766C8.62534 9.59766 8.57067 9.60546 8.50816 9.66797ZM6.11753 15.5742V16.6641H6.73277C7.26953 16.6641 7.348 16.657 7.348 16.6086C7.348 16.5781 7.39423 16.507 7.45077 16.4504L7.55353 16.3477H9.00035H10.4472L10.5499 16.4504C10.6065 16.507 10.6527 16.5781 10.6527 16.6086C10.6527 16.657 10.7312 16.6641 11.2679 16.6641H11.8832V15.5742V14.4844H9.00035H6.11753V15.5742ZM6.11753 17.4918C6.11753 17.8013 6.12425 17.8341 6.20384 17.9137L6.29012 18H9.00035H11.7106L11.7969 17.9137C11.8764 17.8341 11.8832 17.8013 11.8832 17.4918V17.1563H9.00035H6.11753V17.4918Z" fill="#3F3F46"/>
<path fill-rule="evenodd" clip-rule="evenodd" d="M4.22578 0.0421888C4.19706 0.0709114 4.18359 0.239064 4.18359 0.569533V1.05469H9H13.8164V0.569533C13.8164 0.239064 13.8029 0.0709114 13.7742 0.0421888C13.7129 -0.0191237 4.28709 -0.0191237 4.22578 0.0421888ZM4.21875 1.78527C4.21875 1.89707 4.2821 2.50218 4.35955 3.13C4.63788 5.38661 4.78529 6.784 4.90837 8.33203C4.9475 8.82426 4.97299 9.73259 4.98881 11.1973C5.00572 12.7618 5.02358 13.3686 5.05487 13.4409C5.13278 13.621 5.27066 13.7685 5.45787 13.8723L5.64258 13.9746H9H12.3574L12.5454 13.8705C12.7522 13.7559 12.9072 13.562 12.9686 13.3411C12.9945 13.2478 13.0075 12.6312 13.0076 11.4912C13.0079 8.77447 13.1177 7.33971 13.6596 2.97489C13.7265 2.43577 13.7812 1.90185 13.7812 1.78836V1.58203H9H4.21875V1.78527ZM8.88472 4.40933C8.85727 4.43683 8.74315 4.62112 8.63118 4.81887C8.45814 5.12448 8.43244 5.19216 8.45975 5.26989L8.49192 5.36133H9H9.50808L9.54025 5.26989C9.56756 5.19216 9.54186 5.12448 9.36882 4.81887C9.14214 4.41851 9.09468 4.35938 9 4.35938C8.96411 4.35938 8.91221 4.38188 8.88472 4.40933ZM6.79219 5.28047C6.72989 5.34277 6.73984 5.45471 6.84112 5.83119C6.9461 6.22129 7.00323 6.32813 7.10691 6.32813C7.1993 6.32813 7.7985 5.74974 7.82807 5.63203C7.85971 5.50593 7.78458 5.45752 7.38046 5.34365C6.97711 5.23002 6.85568 5.21698 6.79219 5.28047ZM10.6025 5.34586C10.2159 5.45688 10.1405 5.50695 10.1719 5.63203C10.2015 5.74974 10.8007 6.32813 10.8931 6.32813C10.9968 6.32813 11.0539 6.22129 11.1589 5.83119C11.3312 5.19047 11.2847 5.14994 10.6025 5.34586ZM8.65726 5.95955C7.8672 6.13118 7.31577 6.93419 7.44641 7.72271C7.55951 8.40512 8.08439 8.92899 8.76874 9.0424C9.79309 9.21214 10.7315 8.26179 10.5489 7.23973C10.433 6.59124 9.95628 6.09149 9.32625 5.95797C9.03923 5.89715 8.94347 5.89739 8.65726 5.95955ZM6.28457 7.14646C5.91163 7.36256 5.84722 7.42803 5.88635 7.55128C5.91068 7.62796 6.63462 8.05078 6.74153 8.05078C6.86292 8.05078 6.89062 7.94398 6.89062 7.47552C6.89062 7.01547 6.86254 6.92448 6.72114 6.92673C6.68865 6.92722 6.4922 7.02612 6.28457 7.14646ZM11.1646 6.98101C11.1203 7.02535 11.1094 7.12308 11.1094 7.47552C11.1094 7.9444 11.137 8.05078 11.259 8.05078C11.3678 8.05078 12.0884 7.63077 12.1131 7.55294C12.1244 7.51736 12.1246 7.45984 12.1136 7.42507C12.0922 7.35775 11.3662 6.92578 11.2744 6.92578C11.2444 6.92578 11.195 6.95064 11.1646 6.98101ZM6.98245 8.72754C6.91917 8.82679 6.75 9.46319 6.75 9.60191C6.75 9.76894 6.8484 9.77878 7.31194 9.65813C7.75322 9.54327 7.86143 9.47756 7.8281 9.34474C7.79854 9.22687 7.1994 8.64844 7.10691 8.64844C7.0662 8.64844 7.01019 8.68402 6.98245 8.72754ZM10.506 8.95483C10.3338 9.12337 10.1834 9.2988 10.1719 9.34474C10.1386 9.47756 10.2468 9.54327 10.6881 9.65813C11.1516 9.77878 11.25 9.76894 11.25 9.60191C11.25 9.46319 11.0808 8.82679 11.0175 8.72754C10.9298 8.58987 10.8367 8.63121 10.506 8.95483ZM8.49273 9.65289C8.46236 9.6833 8.4375 9.73484 8.4375 9.76743C8.4375 9.80002 8.53861 10.0006 8.66218 10.2131C8.87453 10.5783 8.89313 10.5996 9 10.5996C9.10687 10.5996 9.12547 10.5783 9.33782 10.2131C9.67834 9.62744 9.66199 9.59766 9 9.59766C8.63596 9.59766 8.53724 9.60842 8.49273 9.65289ZM6.11719 15.5918V16.6641H6.71439H7.31155L7.36351 16.5398C7.45622 16.3179 7.49486 16.3125 9 16.3125C10.5051 16.3125 10.5438 16.3179 10.6365 16.5398L10.6884 16.6641H11.2856H11.8828V15.5918V14.5195H9H6.11719V15.5918ZM6.11719 17.4929C6.11719 17.7793 6.12236 17.7996 6.21995 17.8972L6.32271 18H9H11.6773L11.7801 17.8972C11.8776 17.7996 11.8828 17.7793 11.8828 17.4929V17.1914H9H6.11719V17.4929Z" fill="#3F3F46"/>
</g>
<defs>
<clipPath id="clip0_7951_3368">
<rect width="18" height="18" fill="white"/>
</clipPath>
</defs>
</svg>
