<svg width="18" height="18" viewBox="0 0 18 18" fill="none" xmlns="http://www.w3.org/2000/svg">
<path fill-rule="evenodd" clip-rule="evenodd" d="M0.75 9C0.75 4.44375 4.44375 0.75 9 0.75C13.5562 0.75 17.25 4.44375 17.25 9C17.25 13.5562 13.5562 17.25 9 17.25C4.44375 17.25 0.75 13.5562 0.75 9ZM6 4.5C5.80109 4.5 5.61032 4.57902 5.46967 4.71967C5.32902 4.86032 5.25 5.05109 5.25 5.25C5.25 5.44891 5.32902 5.63968 5.46967 5.78033C5.61032 5.92098 5.80109 6 6 6H8.25C8.505 6 8.904 6.0825 9.2175 6.309C9.36 6.411 9.4965 6.54975 9.59625 6.75H5.99775C5.79884 6.75 5.60807 6.82902 5.46742 6.96967C5.32677 7.11032 5.24775 7.30109 5.24775 7.5C5.24775 7.69891 5.32677 7.88968 5.46742 8.03033C5.60807 8.17098 5.79884 8.25 5.99775 8.25H9.59625C9.50879 8.42608 9.37888 8.57763 9.21825 8.691C8.93281 8.88676 8.59608 8.99422 8.25 9H5.99775C5.8423 8.99993 5.69066 9.04816 5.56381 9.13803C5.43697 9.2279 5.34119 9.35497 5.28971 9.50165C5.23823 9.64834 5.23361 9.80739 5.27648 9.95682C5.31935 10.1062 5.40759 10.2387 5.529 10.3358L9.28125 13.3358C9.35817 13.3973 9.44646 13.4431 9.54109 13.4705C9.63571 13.498 9.73481 13.5065 9.83273 13.4956C9.93065 13.4848 10.0255 13.4547 10.1118 13.4072C10.1981 13.3597 10.2742 13.2957 10.3358 13.2188C10.3973 13.1418 10.4431 13.0535 10.4705 12.9589C10.498 12.8643 10.5065 12.7652 10.4956 12.6673C10.4848 12.5693 10.4547 12.4745 10.4072 12.3882C10.3597 12.3019 10.2957 12.2258 10.2188 12.1642L8.136 10.5H8.2485C8.74425 10.5 9.47025 10.3575 10.0935 9.90825C10.6487 9.51074 11.0338 8.91868 11.172 8.25H12C12.1989 8.25 12.3897 8.17098 12.5303 8.03033C12.671 7.88968 12.75 7.69891 12.75 7.5C12.75 7.30109 12.671 7.11032 12.5303 6.96967C12.3897 6.82902 12.1989 6.75 12 6.75H11.172C11.1158 6.48834 11.0232 6.23588 10.8968 6H12C12.1989 6 12.3897 5.92098 12.5303 5.78033C12.671 5.63968 12.75 5.44891 12.75 5.25C12.75 5.05109 12.671 4.86032 12.5303 4.71967C12.3897 4.57902 12.1989 4.5 12 4.5H6Z" fill="#3F3F46"/>
</svg>
