<svg width="18" height="18" viewBox="0 0 18 18" fill="none" xmlns="http://www.w3.org/2000/svg">
<path fill-rule="evenodd" clip-rule="evenodd" d="M9.81033 2.15069C9.44876 1.52982 8.55176 1.52982 8.19018 2.15069L6.09437 5.74895L2.02305 6.63123C1.32081 6.7833 1.04364 7.63635 1.52238 8.17215L4.29749 11.278L3.87794 15.4218C3.87363 15.4643 3.87215 15.5034 3.8733 15.5394C3.88639 16.1929 4.56803 16.6477 5.18889 16.3741L9.00026 14.6946L12.8116 16.3741C13.4691 16.6639 14.1948 16.1366 14.1224 15.4218L13.7028 11.278L16.478 8.17215C16.9567 7.63635 16.6795 6.78329 15.9773 6.63123L11.9067 5.74974L9.81033 2.15069ZM9.00011 13.1424C9.12896 13.1424 9.25781 13.1689 9.37833 13.222L12.5328 14.612L12.1855 11.1824C12.159 10.9206 12.2438 10.6596 12.4191 10.4633L14.7159 7.89285L11.3469 7.1633C11.0897 7.10759 10.8677 6.94632 10.7352 6.71888L9.00026 3.74017L9.00011 13.1424Z" fill="#EAB308"/>
</svg>
